<svg width="39" height="40" viewBox="0 0 39 40" fill="none" xmlns="http://www.w3.org/2000/svg">
<path d="M19.2438 36.8C18.7628 36.8 18.2817 36.6833 17.8807 36.45C14.8819 34.75 9.60588 32.95 6.30236 32.5L5.8373 32.4333C3.73651 32.1667 2.00456 30.1167 2.00456 27.9V7.76667C2.00456 6.45 2.5017 5.25 3.41578 4.38334C4.32986 3.51667 5.51657 3.1 6.76742 3.21667C10.2955 3.5 15.6196 5.33334 18.6345 7.3L19.0193 7.53334C19.1316 7.6 19.3721 7.6 19.4684 7.55L19.7249 7.38334C22.7398 5.41667 28.0639 3.55 31.608 3.23334C31.6401 3.23334 31.7684 3.23334 31.8005 3.23334C32.9711 3.11667 34.1739 3.55 35.0719 4.41667C35.986 5.28334 36.4831 6.48334 36.4831 7.8V27.9167C36.4831 30.15 34.7512 32.1833 32.6344 32.45L32.1052 32.5167C28.8016 32.9667 23.5096 34.7833 20.5749 36.4667C20.19 36.7 19.7249 36.8 19.2438 36.8ZM6.38254 5.7C5.86937 5.7 5.40431 5.88334 5.03547 6.23334C4.63456 6.61667 4.41004 7.16667 4.41004 7.76667V27.9C4.41004 28.8833 5.22791 29.8333 6.14199 29.9667L6.62309 30.0333C10.2313 30.5333 15.7639 32.4167 18.9712 34.2333C19.1156 34.3 19.324 34.3167 19.4042 34.2833C22.6115 32.4333 28.1762 30.5333 31.8005 30.0333L32.3457 29.9667C33.2598 29.85 34.0777 28.8833 34.0777 27.9V7.78334C34.0777 7.16667 33.8531 6.63334 33.4522 6.23334C33.0353 5.85 32.5061 5.66667 31.9127 5.7C31.8806 5.7 31.7524 5.7 31.7203 5.7C28.6573 5.98334 23.718 7.7 21.0239 9.45L20.7673 9.63334C19.8853 10.2 18.6345 10.2 17.7845 9.65L17.3996 9.41667C14.6574 7.66667 9.71814 5.96667 6.57498 5.7C6.51083 5.7 6.44669 5.7 6.38254 5.7Z" fill="#DCDCDC"/>
<path d="M19.2438 35.4C18.5864 35.4 18.0411 34.8333 18.0411 34.15V9.14999C18.0411 8.46666 18.5864 7.89999 19.2438 7.89999C19.9013 7.89999 20.4466 8.46666 20.4466 9.14999V34.15C20.4466 34.85 19.9013 35.4 19.2438 35.4Z" fill="#DCDCDC"/>
<path d="M12.4283 15.4H8.8201C8.1626 15.4 7.61736 14.8333 7.61736 14.15C7.61736 13.4667 8.1626 12.9 8.8201 12.9H12.4283C13.0858 12.9 13.6311 13.4667 13.6311 14.15C13.6311 14.8333 13.0858 15.4 12.4283 15.4Z" fill="#DCDCDC"/>
<path d="M13.6311 20.4H8.8201C8.1626 20.4 7.61736 19.8333 7.61736 19.15C7.61736 18.4667 8.1626 17.9 8.8201 17.9H13.6311C14.2886 17.9 14.8338 18.4667 14.8338 19.15C14.8338 19.8333 14.2886 20.4 13.6311 20.4Z" fill="#DCDCDC"/>
</svg>
