<svg width="39" height="40" viewBox="0 0 39 40" fill="none" xmlns="http://www.w3.org/2000/svg">
<path d="M11.2256 13.3333H6.41462C4.6506 13.3333 3.20731 11.8333 3.20731 9.99998V6.66665C3.20731 4.83331 4.6506 3.33331 6.41462 3.33331H11.2256C12.9896 3.33331 14.4329 4.83331 14.4329 6.66665V9.99998C14.4329 11.8333 12.9896 13.3333 11.2256 13.3333Z" stroke="#DCDCDC" stroke-width="1.2" stroke-linecap="round" stroke-linejoin="round"/>
<path d="M33.356 11.6667H27.5829C26.5244 11.6667 25.6585 10.7666 25.6585 9.66665V7.00002C25.6585 5.90002 26.5244 5 27.5829 5H33.356C34.4144 5 35.2804 5.90002 35.2804 7.00002V9.66665C35.2804 10.7666 34.4144 11.6667 33.356 11.6667Z" stroke="#DCDCDC" stroke-width="1.2" stroke-linecap="round" stroke-linejoin="round"/>
<path d="M33.356 24.1667H27.5829C26.5244 24.1667 25.6585 23.2666 25.6585 22.1666V19.5C25.6585 18.4 26.5244 17.5 27.5829 17.5H33.356C34.4144 17.5 35.2804 18.4 35.2804 19.5V22.1666C35.2804 23.2666 34.4144 24.1667 33.356 24.1667Z" stroke="#DCDCDC" stroke-width="1.2" stroke-linecap="round" stroke-linejoin="round"/>
<path d="M14.4329 8.33331H25.6585" stroke="#DCDCDC" stroke-width="1.2" stroke-miterlimit="10" stroke-linecap="round" stroke-linejoin="round"/>
<path d="M20.0457 8.33331V30C20.0457 31.8333 21.489 33.3333 23.253 33.3333H25.6585" stroke="#DCDCDC" stroke-width="1.2" stroke-miterlimit="10" stroke-linecap="round" stroke-linejoin="round"/>
<path d="M20.0457 20.8333H25.6585" stroke="#DCDCDC" stroke-width="1.2" stroke-miterlimit="10" stroke-linecap="round" stroke-linejoin="round"/>
<path d="M33.356 36.6667H27.5829C26.5244 36.6667 25.6585 35.7666 25.6585 34.6666V32C25.6585 30.9 26.5244 30 27.5829 30H33.356C34.4144 30 35.2804 30.9 35.2804 32V34.6666C35.2804 35.7666 34.4144 36.6667 33.356 36.6667Z" stroke="#DCDCDC" stroke-width="1.2" stroke-linecap="round" stroke-linejoin="round"/>
</svg>
