<svg width="39" height="40" viewBox="0 0 39 40" fill="none" xmlns="http://www.w3.org/2000/svg">
<path d="M24.0548 37.9167H14.4329C5.72504 37.9167 2.00456 34.05 2.00456 25V15C2.00456 5.95 5.72504 2.08333 14.4329 2.08333H24.0548C32.7627 2.08333 36.4831 5.95 36.4831 15V25C36.4831 34.05 32.7627 37.9167 24.0548 37.9167ZM14.4329 4.58333C7.04004 4.58333 4.41004 7.31666 4.41004 15V25C4.41004 32.6833 7.04004 35.4167 14.4329 35.4167H24.0548C31.4477 35.4167 34.0777 32.6833 34.0777 25V15C34.0777 7.31666 31.4477 4.58333 24.0548 4.58333H14.4329Z" fill="#DCDCDC"/>
<path d="M19.2438 37.9167C18.5864 37.9167 18.0411 37.35 18.0411 36.6667V3.33333C18.0411 2.64999 18.5864 2.08333 19.2438 2.08333C19.9013 2.08333 20.4466 2.64999 20.4466 3.33333V36.6667C20.4466 37.35 19.9013 37.9167 19.2438 37.9167Z" fill="#DCDCDC"/>
<path d="M19.2439 17.0833H3.2073C2.5498 17.0833 2.00456 16.5167 2.00456 15.8333C2.00456 15.15 2.5498 14.5833 3.2073 14.5833H19.2439C19.9014 14.5833 20.4466 15.15 20.4466 15.8333C20.4466 16.5167 19.9014 17.0833 19.2439 17.0833Z" fill="#DCDCDC"/>
<path d="M35.2804 25.4167H19.2438C18.5863 25.4167 18.0411 24.85 18.0411 24.1667C18.0411 23.4833 18.5863 22.9167 19.2438 22.9167H35.2804C35.9379 22.9167 36.4831 23.4833 36.4831 24.1667C36.4831 24.85 35.9379 25.4167 35.2804 25.4167Z" fill="#DCDCDC"/>
</svg>
