<svg width="39" height="40" viewBox="0 0 39 40" fill="none" xmlns="http://www.w3.org/2000/svg">
<path d="M25.6585 37.9167H12.8292C7.98621 37.9167 5.21188 35.0333 5.21188 30V13.75C5.21188 8.50001 7.77773 5.83334 12.8292 5.83334C13.4867 5.83334 14.032 6.40001 14.032 7.08334C14.032 7.75001 14.2886 8.38334 14.7376 8.85001C15.1866 9.31667 15.796 9.58334 16.4375 9.58334H22.0503C23.3813 9.58334 24.4557 8.46668 24.4557 7.08334C24.4557 6.40001 25.001 5.83334 25.6585 5.83334C30.71 5.83334 33.2758 8.50001 33.2758 13.75V30C33.2758 35.0333 30.5015 37.9167 25.6585 37.9167ZM11.7868 8.36668C9.25305 8.58335 7.61737 9.76668 7.61737 13.75V30C7.61737 33.7 9.26913 35.4167 12.8292 35.4167H25.6585C29.2186 35.4167 30.8704 33.7 30.8704 30V13.75C30.8704 9.76668 29.2347 8.60002 26.7009 8.36668C26.1557 10.5 24.2793 12.0833 22.0503 12.0833H16.4375C15.1545 12.0833 13.9518 11.5667 13.0377 10.6167C12.4283 9.98334 12.0113 9.21668 11.7868 8.36668Z" fill="#DCDCDC"/>
<path d="M22.0503 12.0833H16.4375C15.1545 12.0833 13.9518 11.5667 13.0377 10.6167C12.1236 9.66667 11.6265 8.41668 11.6265 7.08334C11.6265 4.33334 13.7914 2.08334 16.4375 2.08334H22.0503C23.3332 2.08334 24.5359 2.60002 25.45 3.55002C26.3641 4.50002 26.8612 5.75001 26.8612 7.08334C26.8612 9.83334 24.6963 12.0833 22.0503 12.0833ZM16.4375 4.58334C15.1064 4.58334 14.032 5.70001 14.032 7.08334C14.032 7.75001 14.2886 8.38334 14.7376 8.85001C15.1866 9.31667 15.796 9.58334 16.4375 9.58334H22.0503C23.3813 9.58334 24.4557 8.46668 24.4557 7.08334C24.4557 6.41668 24.1991 5.78335 23.7501 5.31668C23.3011 4.85001 22.6917 4.58334 22.0503 4.58334H16.4375Z" fill="#DCDCDC"/>
<path d="M19.2439 22.9167H12.8292C12.1717 22.9167 11.6265 22.35 11.6265 21.6667C11.6265 20.9833 12.1717 20.4167 12.8292 20.4167H19.2439C19.9014 20.4167 20.4466 20.9833 20.4466 21.6667C20.4466 22.35 19.9014 22.9167 19.2439 22.9167Z" fill="#DCDCDC"/>
<path d="M25.6585 29.5833H12.8292C12.1717 29.5833 11.6265 29.0167 11.6265 28.3333C11.6265 27.65 12.1717 27.0833 12.8292 27.0833H25.6585C26.316 27.0833 26.8612 27.65 26.8612 28.3333C26.8612 29.0167 26.316 29.5833 25.6585 29.5833Z" fill="#DCDCDC"/>
</svg>
