<svg width="41" height="42" viewBox="0 0 41 42" fill="none" xmlns="http://www.w3.org/2000/svg">
<path d="M17.6634 3.90248L9.26111 7.17497C7.3247 7.92747 5.7419 10.3075 5.7419 12.46V25.4624C5.7419 27.5274 7.05531 30.2399 8.65495 31.4824L15.8954 37.1C18.2696 38.955 22.1761 38.955 24.5503 37.1L31.7909 31.4824C33.3905 30.2399 34.7039 27.5274 34.7039 25.4624V12.46C34.7039 10.3075 33.1211 7.92747 31.1847 7.17497L22.7823 3.90248C21.3511 3.35998 19.061 3.35998 17.6634 3.90248Z" stroke="#DCDCDC" stroke-width="1.5" stroke-linecap="round" stroke-linejoin="round"/>
<path d="M20.206 19.11C20.1387 19.11 20.0545 19.11 19.9871 19.11C18.4043 19.0575 17.1414 17.6925 17.1414 16.03C17.1414 14.3325 18.4717 12.95 20.105 12.95C21.7383 12.95 23.0686 14.3325 23.0686 16.03C23.0518 17.71 21.7889 19.0575 20.206 19.11Z" stroke="#DCDCDC" stroke-width="1.5" stroke-linecap="round" stroke-linejoin="round"/>
<path d="M16.8552 24.0101C15.2387 25.1301 15.2387 26.9675 16.8552 28.0875C18.6906 29.365 21.7047 29.365 23.5401 28.0875C25.1566 26.9675 25.1566 25.1301 23.5401 24.0101C21.7215 22.7326 18.7075 22.7326 16.8552 24.0101Z" stroke="#DCDCDC" stroke-width="1.5" stroke-linecap="round" stroke-linejoin="round"/>
</svg>
