<svg width="39" height="40" viewBox="0 0 39 40" fill="none" xmlns="http://www.w3.org/2000/svg">
<path d="M19.2439 25C21.9009 25 24.0548 22.7614 24.0548 20C24.0548 17.2386 21.9009 15 19.2439 15C16.5868 15 14.4329 17.2386 14.4329 20C14.4329 22.7614 16.5868 25 19.2439 25Z" stroke="#DCDCDC" stroke-width="1.3" stroke-miterlimit="10" stroke-linecap="round" stroke-linejoin="round"/>
<path d="M3.20731 21.4667V18.5333C3.20731 16.8 4.57041 15.3667 6.25425 15.3667C9.15686 15.3667 10.3436 13.2333 8.88424 10.6167C8.05034 9.11667 8.54748 7.16667 10.0068 6.3L12.7811 4.65C14.048 3.86667 15.6837 4.33333 16.4375 5.65L16.6139 5.96667C18.0571 8.58333 20.4306 8.58333 21.8899 5.96667L22.0663 5.65C22.82 4.33333 24.4557 3.86667 25.7226 4.65L28.4969 6.3C29.9563 7.16667 30.4534 9.11667 29.6195 10.6167C28.1602 13.2333 29.3469 15.3667 32.2495 15.3667C33.9173 15.3667 35.2964 16.7833 35.2964 18.5333V21.4667C35.2964 23.2 33.9333 24.6333 32.2495 24.6333C29.3469 24.6333 28.1602 26.7667 29.6195 29.3833C30.4534 30.9 29.9563 32.8333 28.4969 33.7L25.7226 35.35C24.4557 36.1333 22.82 35.6667 22.0663 34.35L21.8899 34.0333C20.4466 31.4167 18.0732 31.4167 16.6139 34.0333L16.4375 34.35C15.6837 35.6667 14.048 36.1333 12.7811 35.35L10.0068 33.7C8.54748 32.8333 8.05034 30.8833 8.88424 29.3833C10.3436 26.7667 9.15686 24.6333 6.25425 24.6333C4.57041 24.6333 3.20731 23.2 3.20731 21.4667Z" stroke="#DCDCDC" stroke-width="1.3" stroke-miterlimit="10" stroke-linecap="round" stroke-linejoin="round"/>
</svg>
