<svg width="40" height="40" viewBox="0 0 40 40" fill="none" xmlns="http://www.w3.org/2000/svg">
<path d="M24.95 37.9166H14.95C5.90001 37.9166 2.03334 34.05 2.03334 25V15C2.03334 5.94998 5.90001 2.08331 14.95 2.08331H24.95C34 2.08331 37.8667 5.94998 37.8667 15V25C37.8667 34.05 34.0167 37.9166 24.95 37.9166ZM14.95 4.58331C7.26667 4.58331 4.53334 7.31665 4.53334 15V25C4.53334 32.6833 7.26667 35.4166 14.95 35.4166H24.95C32.6333 35.4166 35.3667 32.6833 35.3667 25V15C35.3667 7.31665 32.6333 4.58331 24.95 4.58331H14.95Z" fill="#CBCBCB"/>
<path d="M13.2833 37.9166C12.6 37.9166 12.0333 37.35 12.0333 36.6666V3.33331C12.0333 2.64998 12.6 2.08331 13.2833 2.08331C13.9667 2.08331 14.5333 2.64998 14.5333 3.33331V36.6666C14.5333 37.35 13.9833 37.9166 13.2833 37.9166Z" fill="#CBCBCB"/>
<path d="M24.95 25.5167C24.6333 25.5167 24.3167 25.4 24.0667 25.15L19.8 20.8833C19.3167 20.4 19.3167 19.6 19.8 19.1167L24.0667 14.85C24.55 14.3667 25.35 14.3667 25.8333 14.85C26.3167 15.3333 26.3167 16.1333 25.8333 16.6167L22.4667 20L25.85 23.3833C26.3333 23.8667 26.3333 24.6667 25.85 25.15C25.6 25.4 25.2833 25.5167 24.95 25.5167Z" fill="#CBCBCB"/>
</svg>
