<svg width="39" height="40" viewBox="0 0 39 40" fill="none" xmlns="http://www.w3.org/2000/svg">
<path d="M17.3034 25.2833C16.9827 25.2833 16.678 25.15 16.4535 24.9167L12.5727 20.8833C12.1076 20.4 12.1076 19.6 12.5727 19.1167C13.0377 18.6333 13.8075 18.6333 14.2725 19.1167L17.3034 22.2667L24.1992 15.1C24.6642 14.6167 25.434 14.6167 25.899 15.1C26.3641 15.5833 26.3641 16.3833 25.899 16.8667L18.1534 24.9167C17.9289 25.15 17.6242 25.2833 17.3034 25.2833Z" fill="#DCDCDC"/>
<path d="M19.2439 37.9167C18.2336 37.9167 17.2233 37.5667 16.4375 36.8667L13.9037 34.6C13.6471 34.3667 13.0056 34.1333 12.6689 34.1333H9.91059C7.53718 34.1333 5.61279 32.1333 5.61279 29.6667V26.8167C5.61279 26.4667 5.38828 25.8167 5.16377 25.55L2.99884 22.9C1.68384 21.2833 1.68384 18.7333 2.99884 17.1167L5.16377 14.4667C5.38828 14.2 5.61279 13.55 5.61279 13.2V10.3333C5.61279 7.86667 7.53718 5.86667 9.91059 5.86667H12.6849C13.0217 5.86667 13.6631 5.61667 13.9197 5.4L16.4535 3.13334C18.0251 1.73334 20.4787 1.73334 22.0503 3.13334L24.584 5.4C24.8406 5.63334 25.4821 5.86667 25.8188 5.86667H28.5451C30.9185 5.86667 32.8428 7.86667 32.8428 10.3333V13.1667C32.8428 13.5167 33.0834 14.1833 33.3079 14.45L35.4889 17.0833C36.8359 18.7167 36.8359 21.2667 35.4889 22.9L33.3079 25.5333C33.0834 25.8 32.8428 26.4667 32.8428 26.8167V29.65C32.8428 32.1167 30.9185 34.1167 28.5451 34.1167H25.8188C25.4821 34.1167 24.8406 34.3667 24.584 34.5833L22.0503 36.85C21.2645 37.5667 20.2542 37.9167 19.2439 37.9167ZM9.91059 8.36667C8.86821 8.36667 8.01827 9.25 8.01827 10.3333V13.1833C8.01827 14.1333 7.58529 15.35 6.99194 16.0667L4.827 18.7167C4.26572 19.4 4.26572 20.5833 4.827 21.2667L6.99194 23.9167C7.58529 24.65 8.01827 25.85 8.01827 26.8V29.65C8.01827 30.7333 8.86821 31.6167 9.91059 31.6167H12.6849C13.615 31.6167 14.7857 32.0667 15.4913 32.7L18.0251 34.9667C18.6826 35.55 19.8372 35.55 20.4947 34.9667L23.0285 32.7C23.7341 32.0833 24.9048 31.6167 25.8349 31.6167H28.5611C29.6035 31.6167 30.4534 30.7333 30.4534 29.65V26.8167C30.4534 25.85 30.8864 24.6333 31.4958 23.9L33.6768 21.2667C34.238 20.5833 34.238 19.3833 33.6768 18.7L31.4958 16.0667C30.8864 15.3333 30.4534 14.1167 30.4534 13.15V10.3333C30.4534 9.25 29.6035 8.36667 28.5611 8.36667H25.8349C24.9048 8.36667 23.7341 7.91667 23.0285 7.28334L20.4947 5.01667C19.8372 4.43334 18.6826 4.43334 18.0251 5.01667L15.4913 7.3C14.7857 7.91667 13.599 8.36667 12.6849 8.36667H9.91059Z" fill="#DCDCDC"/>
</svg>
